<?xml version="1.0" encoding="utf-8"?>
<svg version="1.1" xmlns:xlink="http://www.w3.org/1999/xlink" width="25px" height="44px" xmlns="http://www.w3.org/2000/svg">
  <g transform="matrix(1 0 0 1 -325 -418 )">
    <path d="M 24.5704467353952 2.64529058116232  C 24.8568155784651 2.93921175684702  25 3.27722110888443  25 3.65931863727455  C 25 4.04141616566466  24.8568155784651 4.37942551770207  24.5704467353952 4.67334669338677  L 7.68900343642612 22  L 24.5704467353952 39.3266533066132  C 24.8568155784651 39.6205744822979  25 39.9585838343353  25 40.3406813627254  C 25 40.7227788911156  24.8568155784651 41.060788243153  24.5704467353952 41.3547094188377  L 22.4226804123711 43.5591182364729  C 22.1363115693013 43.8530394121576  21.8069873997709 44  21.4347079037801 44  C 21.0624284077892 44  20.7331042382589 43.8530394121576  20.446735395189 43.5591182364729  L 0.429553264604811 23.0140280561122  C 0.143184421534937 22.7201068804275  0 22.3820975283901  0 22  C 0 21.6179024716099  0.143184421534937 21.2798931195725  0.429553264604811 20.9859719438878  L 20.446735395189 0.440881763527055  C 20.7331042382589 0.14696058784235  21.0624284077892 0  21.4347079037801 0  C 21.8069873997709 0  22.1363115693013 0.14696058784235  22.4226804123711 0.440881763527055  L 24.5704467353952 2.64529058116232  Z " fill-rule="nonzero" fill="#ffffff" stroke="none" transform="matrix(1 0 0 1 325 418 )" />
  </g>
</svg>